<svg width="24" height="26" viewBox="0 0 24 26" fill="none" xmlns="http://www.w3.org/2000/svg">
<path d="M9.7172 21.8039L17.4902 13.6622C17.6267 13.5192 17.7031 13.3274 17.7031 13.1277C17.7031 12.928 17.6267 12.7362 17.4902 12.5932L9.7172 4.4484C9.6536 4.38171 9.57757 4.32871 9.49358 4.29252C9.4096 4.25632 9.31936 4.23768 9.2282 4.23768C9.13704 4.23768 9.0468 4.25632 8.96281 4.29252C8.87883 4.32871 8.80279 4.38171 8.7392 4.4484C8.60837 4.58517 8.53512 4.76876 8.53512 4.95994C8.53512 5.15112 8.60837 5.33472 8.7392 5.47148L16.0487 13.1277L8.7392 20.7824C8.60881 20.9191 8.53585 21.1023 8.53585 21.2932C8.53585 21.484 8.60881 21.6672 8.7392 21.8039C8.80279 21.8706 8.87883 21.9236 8.96281 21.9598C9.0468 21.996 9.13704 22.0146 9.2282 22.0146C9.31936 22.0146 9.4096 21.996 9.49358 21.9598C9.57757 21.9236 9.6536 21.8706 9.7172 21.8039V21.8039Z" fill="white"/>
</svg>
