<svg width="11" height="11" viewBox="0 0 11 11" fill="none" xmlns="http://www.w3.org/2000/svg">
<path d="M9.39552 6.54596L5.74077 2.98333C5.67658 2.92076 5.59048 2.88574 5.50083 2.88574C5.41119 2.88574 5.32509 2.92076 5.2609 2.98333L1.60477 6.54596C1.57484 6.57511 1.55104 6.60995 1.5348 6.64845C1.51855 6.68694 1.51018 6.7283 1.51018 6.77008C1.51018 6.81187 1.51855 6.85322 1.5348 6.89172C1.55104 6.93021 1.57484 6.96506 1.60477 6.99421C1.66617 7.05417 1.74858 7.08774 1.8344 7.08774C1.92022 7.08774 2.00263 7.05417 2.06402 6.99421L5.50083 3.64402L8.93696 6.99421C8.99832 7.05397 9.08059 7.08741 9.16624 7.08741C9.25189 7.08741 9.33416 7.05397 9.39552 6.99421C9.42546 6.96506 9.44925 6.93021 9.4655 6.89172C9.48174 6.85322 9.49011 6.81187 9.49011 6.77008C9.49011 6.7283 9.48174 6.68694 9.4655 6.64845C9.44925 6.60995 9.42546 6.57511 9.39552 6.54596V6.54596Z" fill="#2D2D2D"/>
</svg>
