<svg width="11" height="11" viewBox="0 0 11 11" fill="none" xmlns="http://www.w3.org/2000/svg">
<path d="M1.60448 4.45404L5.25923 8.01667C5.32342 8.07924 5.40952 8.11426 5.49917 8.11426C5.58881 8.11426 5.67491 8.07924 5.7391 8.01667L9.39523 4.45404C9.42516 4.42489 9.44896 4.39005 9.4652 4.35155C9.48145 4.31306 9.48982 4.2717 9.48982 4.22992C9.48982 4.18813 9.48145 4.14678 9.4652 4.10828C9.44896 4.06979 9.42516 4.03494 9.39523 4.00579C9.33383 3.94583 9.25142 3.91226 9.1656 3.91226C9.07978 3.91226 8.99737 3.94583 8.93598 4.00579L5.49917 7.35598L2.06304 4.00579C2.00168 3.94603 1.91941 3.91259 1.83376 3.91259C1.74811 3.91259 1.66584 3.94603 1.60448 4.00579C1.57454 4.03494 1.55075 4.06979 1.5345 4.10828C1.51826 4.14678 1.50989 4.18813 1.50989 4.22992C1.50989 4.2717 1.51826 4.31306 1.5345 4.35155C1.55075 4.39005 1.57454 4.42489 1.60448 4.45404V4.45404Z" fill="#2D2D2D"/>
</svg>
